<svg id="Layer_1" data-name="Layer 1" xmlns="http://www.w3.org/2000/svg" viewBox="0 0 795.92 390.02"><defs><style>.cls-1{fill:#fff;}.cls-10,.cls-2,.cls-3,.cls-6,.cls-7,.cls-9{stroke:#fff;}.cls-10,.cls-2,.cls-3,.cls-5,.cls-6,.cls-7,.cls-9{stroke-miterlimit:10;}.cls-10,.cls-3,.cls-6{fill:none;}.cls-4{font-size:44.92px;fill:#226499;font-family:MyriadPro-Regular, Myriad Pro;}.cls-5{fill:#003c54;stroke:#003c54;}.cls-6{stroke-width:2px;}.cls-7{fill:#23638f;stroke-width:0.5px;}.cls-8{fill:#05f;}.cls-9{stroke-width:0.75px;}.cls-10{stroke-width:6px;}.cls-11{fill:#919191;}</style></defs><path class="cls-1" d="M774.38,463.66c0,.14-.48,1.22-.07.27s0,0-.14.23c-.37.89.65-.6.22-.25-.19.16-.38.36-.56.53a8.48,8.48,0,0,0-2.77,6,6,6,0,0,0,6,6,6.07,6.07,0,0,0,6-6l0-.3-.22,1.58a10,10,0,0,1-1,1.55,5.92,5.92,0,0,1,.56-.54,11.73,11.73,0,0,0,1.71-2,15.85,15.85,0,0,0,1.79-3.93c1-2.94-1.17-6.64-4.16-7.32a6.1,6.1,0,0,0-7.32,4.16Z" transform="translate(-293.34 -125.32)"/><line class="cls-2" x1="287.89" y1="320.86" x2="285.28" y2="338.74"/><line class="cls-2" x1="287.27" y1="320.45" x2="284.67" y2="338.33"/><line class="cls-2" x1="276.33" y1="286.36" x2="273.02" y2="310.33"/><path class="cls-3" d="M815.55,436.43C811,456.22,799,473.67,799,473.67" transform="translate(-293.34 -125.32)"/><line class="cls-3" x1="288.82" y1="285.89" x2="281.65" y2="334.93"/><path class="cls-3" d="M786.8,513.73" transform="translate(-293.34 -125.32)"/><text class="cls-4" transform="translate(768.11 282.2)">™</text><path class="cls-5" d="M325.19,429.55l-11.46-5.71q-10.77-5.4-15.33-10.63a17.74,17.74,0,0,1-4.56-12q0-10.2,8.63-16.57t22.43-6.37a49.5,49.5,0,0,1,24.19,6v14.06q-11.37-9-24.49-9-7.39,0-12.14,2.8t-4.74,7.16c0,2.58,1.16,5,3.5,7.26s6.09,4.63,11.25,7.12l11.49,5.6q19.25,9.45,19.24,24.05a20.32,20.32,0,0,1-8.48,16.89q-8.48,6.5-22,6.49a53,53,0,0,1-28.41-7.9V443.13q12.21,12.72,28.27,12.71a20.33,20.33,0,0,0,11.8-3.23q4.73-3.23,4.72-8.1Q339.06,436.64,325.19,429.55Z" transform="translate(-293.34 -125.32)"/><path class="cls-5" d="M476.19,429m-14.78,27.64a6.41,6.41,0,0,1-1.86.33q-2.6,0-2.59-3.59V423.55a90.93,90.93,0,0,0-.52-12,17.69,17.69,0,0,0-2.46-6.33,19,19,0,0,0-4.35-5.08q-7.26-6-19.26-5.95-16,0-24.57,9.51v15.14q11.37-11.65,23.38-11.66,13.38,0,13.38,12.62v3.73l-18.8,6.11q-9.28,3-14.32,8.28a16.68,16.68,0,0,0-5,11.88A16,16,0,0,0,409.56,462a18.12,18.12,0,0,0,12.9,4.85,33,33,0,0,0,19.91-6.88q1.69,7.06,11.15,7.06a18.05,18.05,0,0,0,6.34-1.12c.48-.17,1-.38,1.55-.63l1.24-.66Zm-18.85-4.81q-6,5.4-13,5.41a10.76,10.76,0,0,1-7.63-2.75,9.89,9.89,0,0,1,.16-14.23c2.08-1.91,5.61-3.8,10.62-5.69l9.85-3.58Z" transform="translate(-293.34 -125.32)"/><path class="cls-5" d="M521,408.08l-.23,31.2c0,6.36.31,10.66.93,12.93A19.67,19.67,0,0,0,524,457.7a16.42,16.42,0,0,0,3.47,3.77q6.69,5.56,16.76,5.57a38.78,38.78,0,0,0,18.45-4.49V449.63q-8.78,4.94-16.67,4.94-10.54,0-10.54-12V408.18h23.38V395.72H535.48v-14.5l-14.81,13.63Z" transform="translate(-293.34 -125.32)"/><path class="cls-5" d="M1026.37,408.08l-.23,31.2c0,6.36.31,10.66.93,12.93a19.37,19.37,0,0,0,2.3,5.49,16.15,16.15,0,0,0,3.46,3.77q6.69,5.56,16.76,5.57a38.78,38.78,0,0,0,18.45-4.49V449.63q-8.77,4.94-16.67,4.94-10.55,0-10.54-12V408.18h23.38V395.72h-23.38v-14.5L1026,394.85Z" transform="translate(-293.34 -125.32)"/><path class="cls-5" d="M358.45,407.85l-.23,31.2q0,9.52.93,12.92a19.67,19.67,0,0,0,2.29,5.49,16,16,0,0,0,3.47,3.77q6.69,5.56,16.76,5.57a38.78,38.78,0,0,0,18.45-4.49V449.39q-8.78,5-16.67,4.95-10.54,0-10.54-12V407.94h23.38V395.48H372.91V381l-14.82,13.62Z" transform="translate(-293.34 -125.32)"/><path class="cls-5" d="M515.75,403.42a14.81,14.81,0,0,0-2.56-4.12,11,11,0,0,0-9.33-4.22q-10.62,0-21.26,16.23l-.8,1.22V396.59H467v70.08H481.8V429.94A23.41,23.41,0,0,1,487,414.75c3.46-4.27,5.9-6.91,10.63-6.91,3.19,0,5.91,2,6.56,5.91.5,2.94,3.44,4.84,6.41,4.85h0c4,0,6.61-3.17,6.67-7.37A22,22,0,0,0,515.75,403.42Z" transform="translate(-293.34 -125.32)"/><path class="cls-5" d="M940.39,373.85a8.29,8.29,0,0,1,6,2.4,7.81,7.81,0,0,1,2.49,5.86,8,8,0,0,1-2.49,5.87,8.15,8.15,0,0,1-6,2.47,7.86,7.86,0,0,1-5.74-2.51,8,8,0,0,1,0-11.58A7.86,7.86,0,0,1,940.39,373.85Z" transform="translate(-293.34 -125.32)"/><path class="cls-5" d="M940.51,395.64h0a7.08,7.08,0,0,1,7.08,7.08v64.07H933.43V402.72A7.08,7.08,0,0,1,940.51,395.64Z" transform="translate(-293.34 -125.32)"/><path class="cls-5" d="M1019.2,431.33v-1.77q0-16.63-8.5-26.54T988,393.12q-14.81,0-24.07,10.18t-9.27,26.46a39.87,39.87,0,0,0,4.4,19.09A35.51,35.51,0,0,0,970.73,462q7.32,4.89,19.16,4.88A54.82,54.82,0,0,0,1005,465a47.39,47.39,0,0,0,13-6.19V445.06a43,43,0,0,1-25.86,8.61q-10.05,0-16.4-6.05t-6.9-16.29ZM969,422.9q1.49-8.44,6.37-13T988,405.32q7.65,0,12.19,4.57t5.07,13Z" transform="translate(-293.34 -125.32)"/><path class="cls-5" d="M843.45,404.83v62h28.61q12,0,16.31-.68a45.64,45.64,0,0,0,9.38-2.66,44,44,0,0,0,28.8-41.31,44.54,44.54,0,0,0-6.34-23.22,41.7,41.7,0,0,0-17.09-16.13q-10.74-5.48-29.18-5.48H843.45Zm29.09-16.14a91.68,91.68,0,0,1,13.53.7,35,35,0,0,1,8.89,2.89,31.27,31.27,0,0,1,8.32,5.58q9.84,9.11,9.83,23.54,0,14.69-9.57,24.31a30.88,30.88,0,0,1-6.57,5,35.72,35.72,0,0,1-9,3.34,67.28,67.28,0,0,1-15.08,1.31H856.37V388.69Z" transform="translate(-293.34 -125.32)"/><path class="cls-6" d="M563,395.1" transform="translate(-293.34 -125.32)"/><path class="cls-3" d="M612.26,496.45c-11.55-10.56-23.1-24.39-29.8-40.64" transform="translate(-293.34 -125.32)"/><polygon class="cls-7" points="69.95 353.36 73.23 353.36 73.23 377.69 70.26 377.69 54.12 358.95 54.12 377.69 50.88 377.69 50.88 353.36 53.67 353.36 69.95 372.26 69.95 353.36"/><path class="cls-7" d="M389.93,478.68h3.47V492.5a16.55,16.55,0,0,1-.41,4.23,9.26,9.26,0,0,1-1,2.38,7.34,7.34,0,0,1-1.46,1.69,11,11,0,0,1-7.49,2.5,11.15,11.15,0,0,1-7.57-2.48,7.84,7.84,0,0,1-1.45-1.71,9,9,0,0,1-1-2.33,17.32,17.32,0,0,1-.39-4.32V478.68h3.47v13.81a10.34,10.34,0,0,0,.78,4.78,5.51,5.51,0,0,0,2.36,2.15,8.16,8.16,0,0,0,3.75.81,7.54,7.54,0,0,0,5-1.62,5,5,0,0,0,1.47-2.06,12.72,12.72,0,0,0,.45-4.06Z" transform="translate(-293.34 -125.32)"/><polygon class="cls-7" points="104.19 353.34 124.35 353.34 124.35 356.43 115.93 356.43 115.93 377.69 112.47 377.69 112.47 356.43 104.19 356.43 104.19 353.34"/><path class="cls-7" d="M422.47,503V478.68h6a8.68,8.68,0,0,1,5.81,1.83,6.17,6.17,0,0,1,2.15,4.95,6.4,6.4,0,0,1-1.06,3.68,6.23,6.23,0,0,1-3,2.32,10.6,10.6,0,0,1,2.26,2.09,39.9,39.9,0,0,1,3.11,4.61c.85,1.38,1.52,2.42,2,3.11l1.27,1.74H437l-1.05-1.6a2.16,2.16,0,0,0-.21-.3l-.67-.95L434,498.38l-1.16-1.9a18.75,18.75,0,0,0-2-2.38,7.62,7.62,0,0,0-1.61-1.28,5.4,5.4,0,0,0-2.41-.39h-.9V503ZM427,481.65h-1v7.69h1.31a9.72,9.72,0,0,0,3.6-.45,3.42,3.42,0,0,0,1.52-1.37,4,4,0,0,0,.54-2.09,3.77,3.77,0,0,0-.6-2.08,3.3,3.3,0,0,0-1.7-1.32A12.38,12.38,0,0,0,427,481.65Z" transform="translate(-293.34 -125.32)"/><rect class="cls-7" x="151.86" y="353.36" width="3.45" height="24.33"/><polygon class="cls-7" points="160.01 353.34 180.17 353.34 180.17 356.43 171.75 356.43 171.75 377.69 168.29 377.69 168.29 356.43 160.01 356.43 160.01 353.34"/><rect class="cls-7" x="184.9" y="353.36" width="3.45" height="24.33"/><path class="cls-7" d="M500.3,478.34a12.91,12.91,0,0,1,9.31,3.57,11.86,11.86,0,0,1,3.73,8.95,11.71,11.71,0,0,1-3.76,8.91,13.29,13.29,0,0,1-9.47,3.53,12.55,12.55,0,0,1-9.1-3.53,11.82,11.82,0,0,1-3.64-8.84,12,12,0,0,1,3.67-9A12.71,12.71,0,0,1,500.3,478.34Zm.13,3.31a9.3,9.3,0,0,0-6.8,2.61,8.92,8.92,0,0,0-2.67,6.67,8.77,8.77,0,0,0,2.67,6.54,9.89,9.89,0,0,0,13.44-.05,8.93,8.93,0,0,0,2.7-6.63,8.71,8.71,0,0,0-2.7-6.5A9.13,9.13,0,0,0,500.43,481.65Z" transform="translate(-293.34 -125.32)"/><path class="cls-8" d="M820.76,399.12a119.81,119.81,0,0,0-.83-24,115.86,115.86,0,0,0-16.09-44.42,127,127,0,0,0-14.15-18.72,130.24,130.24,0,0,0-104.2-42.49c-2,.08-3.88.34-5.82.49-1,.07-1.94.22-2.91.36l-2.89.42q-5.79.88-11.49,2.3a126.47,126.47,0,0,0-42.65,19.73,121.84,121.84,0,0,0-18,15.69,124.58,124.58,0,0,0-14.69,19.06A119.82,119.82,0,0,0,570.25,373,123.75,123.75,0,0,0,569,397.77a121.6,121.6,0,0,0,4,24.64,124.76,124.76,0,0,0,9,23.47,129,129,0,0,0,13.74,21.26,126.8,126.8,0,0,0,39,32.4,130,130,0,0,0,48.64,14.79,126.65,126.65,0,0,0,50.41-5.28A122.6,122.6,0,0,0,757,499a125.64,125.64,0,0,0,51-53.2A123.38,123.38,0,0,0,820.76,399.12Zm14.12,1.46a133.47,133.47,0,0,1-6.33,26.16,127.52,127.52,0,0,1-11.5,24.13,131.6,131.6,0,0,1-35.84,38.39,138.55,138.55,0,0,1-22.51,13.1,142.31,142.31,0,0,1-75.34,12.12,139.57,139.57,0,0,1-48.77-14.68,137.49,137.49,0,0,1-55.45-52.32,133.11,133.11,0,0,1-18.2-75.4,133,133,0,0,1,13.83-51.43,136.79,136.79,0,0,1,56.15-58,136.41,136.41,0,0,1,25.41-10.84q6.61-2.09,13.42-3.52l3.42-.65c1.14-.22,2.27-.44,3.42-.58,2.3-.3,4.59-.7,6.9-.9a140.56,140.56,0,0,1,27.82-.26,138.67,138.67,0,0,1,53.3,15.76,133.7,133.7,0,0,1,42.44,35.74,136.84,136.84,0,0,1,24.44,49.19,139.4,139.4,0,0,1,3.39,54Z" transform="translate(-293.34 -125.32)"/><line class="cls-3" x1="300.71" y1="290.12" x2="293.55" y2="339.16"/><line class="cls-9" x1="518.15" y1="227.86" x2="536.69" y2="185.63"/><line class="cls-9" x1="525.28" y1="246.35" x2="544.79" y2="202.35"/><line class="cls-6" x1="301.57" y1="194.42" x2="311.78" y2="214.15"/><line class="cls-6" x1="299.99" y1="195.24" x2="292.93" y2="244.2"/><polygon class="cls-10" points="543.18 31.6 478.11 178.3 457.63 173.41 528.63 6.67 543.18 31.6"/><line class="cls-3" x1="287.88" y1="278.7" x2="281.01" y2="327.14"/><path class="cls-11" d="M828.89,313.68c8.17-.35,11.75,4.14,10.86,9.42a9.93,9.93,0,0,1-.76,2.37L777.45,466.69a9.11,9.11,0,0,1-8.37,5.2H760l18.76-43a16.14,16.14,0,0,0,0-13l-43.18-97.23,5.59-.21a1.93,1.93,0,0,1,1.83,1.15L784.89,414l39.71-90.48,2.54-5.95H821l-2.14-3.9" transform="translate(-293.34 -125.32)"/><path class="cls-11" d="M603.56,346.32l-16.89,120.8h5.7l3.54,3.93h-18a5.55,5.55,0,0,1-5.49-6.34L593.1,320.3h2.46L656.83,447l61.5-126.72h2.43L742.6,472h-6.66a9.42,9.42,0,0,1-9.32-8.14L712.12,358,666,450.55a6.42,6.42,0,0,1-11.32,0Z" transform="translate(-293.34 -125.32)"/><path class="cls-5" d="M758.84,287.14a93.59,93.59,0,0,1,13.27,8.69L782.3,273a72.86,72.86,0,0,0-13.6-9Z" transform="translate(-293.34 -125.32)"/><polygon class="cls-7" points="244.83 353.36 248.11 353.36 248.11 377.69 245.14 377.69 229 358.95 229 377.69 225.75 377.69 225.75 353.36 228.55 353.36 244.83 372.26 244.83 353.36"/><path class="cls-7" d="M577.14,503l-2.82-3.31a13.91,13.91,0,0,1-1.24,1.07l0,0a11.2,11.2,0,0,1-3,1.76,9,9,0,0,1-3.39.74,6,6,0,0,1-4.25-1.65,5.28,5.28,0,0,1-1.75-4,5.75,5.75,0,0,1,.86-3.09,10.79,10.79,0,0,1,2.79-2.8l.05-.05a17,17,0,0,1,2-1.31c-1.82-2-2.72-3.84-2.72-5.64a5.24,5.24,0,0,1,1.67-4,6.13,6.13,0,0,1,4.34-1.55,6.24,6.24,0,0,1,4.32,1.52,5,5,0,0,1,1.69,3.87q0,3.19-4.23,6.21l-.24.19,3.4,3.91a16.32,16.32,0,0,0,2.61-3.92h3.44a21.86,21.86,0,0,1-3.94,6.38l4.91,5.69Zm-5.72-5,.78-.72-3.92-4.56-1.52,1.08c-1.8,1.22-2.69,2.46-2.69,3.71a2.21,2.21,0,0,0,.88,1.76,3.18,3.18,0,0,0,2.12.73,5.38,5.38,0,0,0,2.19-.55A8.26,8.26,0,0,0,571.42,498Zm-2.26-9.37,1.32-.95a3.7,3.7,0,0,0,1.84-3,2.34,2.34,0,0,0-.76-1.78,3,3,0,0,0-3.81-.06,2.17,2.17,0,0,0-.74,1.66,4.53,4.53,0,0,0,.58,2.08A7.86,7.86,0,0,0,569.16,488.61Z" transform="translate(-293.34 -125.32)"/><path class="cls-7" d="M602,492.82l-2.63-1.61a12,12,0,0,1-3.52-3,5.67,5.67,0,0,1-1-3.38,6,6,0,0,1,2-4.67,7.38,7.38,0,0,1,5.14-1.79,9.72,9.72,0,0,1,5.56,1.7v4a8,8,0,0,0-5.62-2.53,4.63,4.63,0,0,0-2.79.79,2.37,2.37,0,0,0-1.09,2,3.12,3.12,0,0,0,.81,2.05,10.07,10.07,0,0,0,2.58,2l2.63,1.58q4.43,2.65,4.42,6.77a6.23,6.23,0,0,1-1.95,4.76,7.06,7.06,0,0,1-5.05,1.83,10.57,10.57,0,0,1-6.52-2.23v-4.42c1.86,2.38,4,3.58,6.48,3.58a4.09,4.09,0,0,0,2.71-.91,2.87,2.87,0,0,0,1.08-2.28Q605.18,494.82,602,492.82Z" transform="translate(-293.34 -125.32)"/><path class="cls-7" d="M630.43,478.68h3.46V492.5a16.64,16.64,0,0,1-.4,4.23,9.63,9.63,0,0,1-1,2.38A7.59,7.59,0,0,1,631,500.8a11,11,0,0,1-7.5,2.5,11.12,11.12,0,0,1-7.56-2.48,8.17,8.17,0,0,1-1.46-1.71,9.33,9.33,0,0,1-1-2.33,17.32,17.32,0,0,1-.39-4.32V478.68h3.47v13.81a10.36,10.36,0,0,0,.77,4.78,5.6,5.6,0,0,0,2.37,2.15,8.16,8.16,0,0,0,3.75.81,7.54,7.54,0,0,0,5-1.62,5,5,0,0,0,1.47-2.06,12.72,12.72,0,0,0,.45-4.06Z" transform="translate(-293.34 -125.32)"/><path class="cls-7" d="M639.89,503V478.66h7.65a7.88,7.88,0,0,1,5.52,1.88,6.52,6.52,0,0,1,2.05,5,6.8,6.8,0,0,1-1.05,3.76,6,6,0,0,1-2.89,2.38,14.44,14.44,0,0,1-5.26.74h-2.56V503Zm7-21.26h-3.58v7.63h3.79a4.77,4.77,0,0,0,3.25-1,3.64,3.64,0,0,0,1.14-2.88C651.53,483,650,481.75,646.93,481.75Z" transform="translate(-293.34 -125.32)"/><path class="cls-7" d="M659.32,503V478.66H667a7.87,7.87,0,0,1,5.51,1.88,6.53,6.53,0,0,1,2.06,5,6.72,6.72,0,0,1-1.06,3.76,6,6,0,0,1-2.88,2.38,14.51,14.51,0,0,1-5.26.74h-2.56V503Zm7-21.26h-3.58v7.63h3.78a4.75,4.75,0,0,0,3.25-1A3.64,3.64,0,0,0,671,485.5Q671,481.75,666.37,481.75Z" transform="translate(-293.34 -125.32)"/><polygon class="cls-7" points="385.62 353.36 389.07 353.36 389.07 374.52 399.95 374.52 399.95 377.69 385.62 377.69 385.62 353.36"/><polygon class="cls-7" points="404.38 353.36 418.06 353.36 418.06 356.45 407.82 356.45 407.82 363.88 417.7 363.88 417.7 366.99 407.82 366.99 407.82 374.54 418.38 374.54 418.38 377.65 404.38 377.65 404.38 353.36"/><polygon class="cls-7" points="442.66 353.36 445.89 353.36 445.89 377.69 442.43 377.69 442.43 358.76 434.99 368.16 434.35 368.16 426.84 358.76 426.84 377.69 423.39 377.69 423.39 353.36 426.67 353.36 434.68 363.36 442.66 353.36"/><polygon class="cls-7" points="452.5 353.36 466.19 353.36 466.19 356.45 455.95 356.45 455.95 363.88 465.83 363.88 465.83 366.99 455.95 366.99 455.95 374.54 466.51 374.54 466.51 377.65 452.5 377.65 452.5 353.36"/><polygon class="cls-7" points="490.77 353.36 494.06 353.36 494.06 377.69 491.08 377.69 474.95 358.95 474.95 377.69 471.7 377.69 471.7 353.36 474.5 353.36 490.77 372.26 490.77 353.36"/><polygon class="cls-7" points="498.57 353.34 518.72 353.34 518.72 356.43 510.31 356.43 510.31 377.69 506.84 377.69 506.84 356.43 498.57 356.43 498.57 353.34"/><path class="cls-7" d="M834,492.82l-2.63-1.61a11.89,11.89,0,0,1-3.51-3,5.67,5.67,0,0,1-1.05-3.38,6,6,0,0,1,2-4.67,7.41,7.41,0,0,1,5.15-1.79,9.69,9.69,0,0,1,5.55,1.7v4a8,8,0,0,0-5.62-2.53,4.63,4.63,0,0,0-2.79.79,2.39,2.39,0,0,0-1.09,2,3.12,3.12,0,0,0,.81,2.05,10.44,10.44,0,0,0,2.58,2l2.64,1.58q4.41,2.65,4.41,6.77a6.26,6.26,0,0,1-1.94,4.76,7.1,7.1,0,0,1-5.06,1.83,10.57,10.57,0,0,1-6.52-2.23v-4.42c1.87,2.38,4,3.58,6.49,3.58a4.08,4.08,0,0,0,2.7-.91,2.85,2.85,0,0,0,1.09-2.28Q837.15,494.82,834,492.82Z" transform="translate(-293.34 -125.32)"/><path class="cls-7" d="M862.39,478.68h3.47V492.5a16.55,16.55,0,0,1-.41,4.23,9.26,9.26,0,0,1-1,2.38A7.34,7.34,0,0,1,863,500.8a11,11,0,0,1-7.49,2.5,11.13,11.13,0,0,1-7.57-2.48,8.17,8.17,0,0,1-1.46-1.71,9.33,9.33,0,0,1-1-2.33,17.32,17.32,0,0,1-.39-4.32V478.68h3.47v13.81a10.34,10.34,0,0,0,.78,4.78,5.51,5.51,0,0,0,2.36,2.15,8.16,8.16,0,0,0,3.75.81,7.54,7.54,0,0,0,5-1.62,5,5,0,0,0,1.47-2.06,12.72,12.72,0,0,0,.45-4.06Z" transform="translate(-293.34 -125.32)"/><path class="cls-7" d="M871.85,503V478.66h7.66a7.87,7.87,0,0,1,5.51,1.88,6.53,6.53,0,0,1,2.06,5,6.8,6.8,0,0,1-1.06,3.76,5.94,5.94,0,0,1-2.89,2.38,14.42,14.42,0,0,1-5.25.74h-2.56V503Zm7-21.26h-3.57v7.63h3.78a4.75,4.75,0,0,0,3.25-1,3.64,3.64,0,0,0,1.14-2.88Q883.49,481.75,878.89,481.75Z" transform="translate(-293.34 -125.32)"/><polygon class="cls-7" points="598.15 353.36 611.83 353.36 611.83 356.45 601.6 356.45 601.6 363.88 611.47 363.88 611.47 366.99 601.6 366.99 601.6 374.54 612.15 374.54 612.15 377.65 598.15 377.65 598.15 353.36"/><path class="cls-7" d="M910.68,503V478.68h6a8.69,8.69,0,0,1,5.82,1.83,6.17,6.17,0,0,1,2.14,4.95,6.4,6.4,0,0,1-1,3.68,6.32,6.32,0,0,1-3,2.32,10.6,10.6,0,0,1,2.26,2.09,39.9,39.9,0,0,1,3.11,4.61c.84,1.38,1.52,2.42,2,3.11l1.28,1.74h-4.11l-1-1.6c0-.06-.1-.16-.21-.3l-.67-.95-1.07-1.78-1.16-1.9a17.91,17.91,0,0,0-2-2.38,7.6,7.6,0,0,0-1.6-1.28,5.4,5.4,0,0,0-2.41-.39h-.9V503Zm4.48-21.36h-1v7.69h1.31a9.72,9.72,0,0,0,3.6-.45,3.42,3.42,0,0,0,1.52-1.37,4,4,0,0,0,.54-2.09,3.7,3.7,0,0,0-.61-2.08A3.24,3.24,0,0,0,918.8,482,12.47,12.47,0,0,0,915.16,481.65Z" transform="translate(-293.34 -125.32)"/><path class="cls-7" d="M939.34,492.82l-2.63-1.61a11.82,11.82,0,0,1-3.52-3,5.67,5.67,0,0,1-1.05-3.38,6,6,0,0,1,2-4.67,7.41,7.41,0,0,1,5.15-1.79,9.66,9.66,0,0,1,5.55,1.7v4a8,8,0,0,0-5.62-2.53,4.58,4.58,0,0,0-2.78.79,2.37,2.37,0,0,0-1.09,2,3.11,3.11,0,0,0,.8,2.05,10.44,10.44,0,0,0,2.58,2l2.64,1.58q4.41,2.65,4.41,6.77a6.26,6.26,0,0,1-1.94,4.76,7.08,7.08,0,0,1-5.06,1.83,10.57,10.57,0,0,1-6.52-2.23v-4.42c1.87,2.38,4,3.58,6.49,3.58a4.11,4.11,0,0,0,2.71-.91,2.87,2.87,0,0,0,1.08-2.28Q942.52,494.82,939.34,492.82Z" transform="translate(-293.34 -125.32)"/><polygon class="cls-7" points="655.58 353.34 675.73 353.34 675.73 356.43 667.32 356.43 667.32 377.69 663.85 377.69 663.85 356.43 655.58 356.43 655.58 353.34"/><path class="cls-7" d="M983.3,478.34a12.93,12.93,0,0,1,9.32,3.57,11.88,11.88,0,0,1,3.72,8.95,11.68,11.68,0,0,1-3.76,8.91,13.29,13.29,0,0,1-9.47,3.53,12.57,12.57,0,0,1-9.1-3.53,11.82,11.82,0,0,1-3.63-8.84,12.07,12.07,0,0,1,3.66-9A12.72,12.72,0,0,1,983.3,478.34Zm.14,3.31a9.34,9.34,0,0,0-6.81,2.61,8.92,8.92,0,0,0-2.67,6.67,8.74,8.74,0,0,0,2.68,6.54,9.87,9.87,0,0,0,13.43-.05,8.93,8.93,0,0,0,2.7-6.63,8.71,8.71,0,0,0-2.7-6.5A9.12,9.12,0,0,0,983.44,481.65Z" transform="translate(-293.34 -125.32)"/><path class="cls-7" d="M1002.09,503V478.68h6a8.68,8.68,0,0,1,5.81,1.83,6.17,6.17,0,0,1,2.15,4.95,6.4,6.4,0,0,1-1.06,3.68,6.23,6.23,0,0,1-3,2.32,10.6,10.6,0,0,1,2.26,2.09,39.9,39.9,0,0,1,3.11,4.61c.85,1.38,1.52,2.42,2,3.11l1.27,1.74h-4.11l-1.05-1.6a2.16,2.16,0,0,0-.21-.3l-.67-.95-1.07-1.78-1.15-1.9a19.61,19.61,0,0,0-2-2.38,7.62,7.62,0,0,0-1.61-1.28,5.4,5.4,0,0,0-2.41-.39h-.9V503Zm4.48-21.36h-1v7.69h1.31a9.72,9.72,0,0,0,3.6-.45,3.42,3.42,0,0,0,1.52-1.37,4,4,0,0,0,.54-2.09,3.77,3.77,0,0,0-.6-2.08,3.3,3.3,0,0,0-1.7-1.32A12.38,12.38,0,0,0,1006.57,481.65Z" transform="translate(-293.34 -125.32)"/><polygon class="cls-7" points="731.44 353.36 745.12 353.36 745.12 356.45 734.88 356.45 734.88 363.88 744.76 363.88 744.76 366.99 734.88 366.99 734.88 374.54 745.44 374.54 745.44 377.65 731.44 377.65 731.44 353.36"/></svg>